<?xml version="1.0" encoding="utf-8" standalone="no"?>
<!DOCTYPE svg PUBLIC "-//W3C//DTD SVG 1.1//EN"
  "http://www.w3.org/Graphics/SVG/1.1/DTD/svg11.dtd">
<!-- Created with matplotlib (https://matplotlib.org/) -->
<svg height="288pt" version="1.1" viewBox="0 0 432 288" width="432pt" xmlns="http://www.w3.org/2000/svg" xmlns:xlink="http://www.w3.org/1999/xlink">
 <defs>
  <style type="text/css">
*{stroke-linecap:butt;stroke-linejoin:round;}
  </style>
 </defs>
 <g id="figure_1">
  <g id="patch_1">
   <path d="M 0 288 
L 432 288 
L 432 0 
L 0 0 
z
" style="fill:#ffffff;"/>
  </g>
  <g id="axes_1">
   <g id="patch_2">
    <path d="M 47.675 183.164746 
L 388.729247 183.164746 
L 388.729247 26.8 
L 47.675 26.8 
z
" style="fill:#ffffff;"/>
   </g>
   <g id="matplotlib.axis_1">
    <g id="xtick_1">
     <g id="line2d_1">
      <path clip-path="url(#paa23a8e617)" d="M 63.177466 183.164746 
L 63.177466 26.8 
" style="fill:none;stroke:#b0b0b0;stroke-linecap:square;stroke-width:0.8;"/>
     </g>
     <g id="line2d_2">
      <defs>
       <path d="M 0 0 
L 0 3.5 
" id="m16c45e1633" style="stroke:#000000;stroke-width:0.8;"/>
      </defs>
      <g>
       <use style="stroke:#000000;stroke-width:0.8;" x="63.177466" xlink:href="#m16c45e1633" y="183.164746"/>
      </g>
     </g>
     <g id="text_1">
      <!-- Weighted Words -->
      <defs>
       <path d="M 3.328125 72.90625 
L 13.28125 72.90625 
L 28.609375 11.28125 
L 43.890625 72.90625 
L 54.984375 72.90625 
L 70.3125 11.28125 
L 85.59375 72.90625 
L 95.609375 72.90625 
L 77.296875 0 
L 64.890625 0 
L 49.515625 63.28125 
L 33.984375 0 
L 21.578125 0 
z
" id="DejaVuSans-87"/>
       <path d="M 56.203125 29.59375 
L 56.203125 25.203125 
L 14.890625 25.203125 
Q 15.484375 15.921875 20.484375 11.0625 
Q 25.484375 6.203125 34.421875 6.203125 
Q 39.59375 6.203125 44.453125 7.46875 
Q 49.3125 8.734375 54.109375 11.28125 
L 54.109375 2.78125 
Q 49.265625 0.734375 44.1875 -0.34375 
Q 39.109375 -1.421875 33.890625 -1.421875 
Q 20.796875 -1.421875 13.15625 6.1875 
Q 5.515625 13.8125 5.515625 26.8125 
Q 5.515625 40.234375 12.765625 48.109375 
Q 20.015625 56 32.328125 56 
Q 43.359375 56 49.78125 48.890625 
Q 56.203125 41.796875 56.203125 29.59375 
z
M 47.21875 32.234375 
Q 47.125 39.59375 43.09375 43.984375 
Q 39.0625 48.390625 32.421875 48.390625 
Q 24.90625 48.390625 20.390625 44.140625 
Q 15.875 39.890625 15.1875 32.171875 
z
" id="DejaVuSans-101"/>
       <path d="M 9.421875 54.6875 
L 18.40625 54.6875 
L 18.40625 0 
L 9.421875 0 
z
M 9.421875 75.984375 
L 18.40625 75.984375 
L 18.40625 64.59375 
L 9.421875 64.59375 
z
" id="DejaVuSans-105"/>
       <path d="M 45.40625 27.984375 
Q 45.40625 37.75 41.375 43.109375 
Q 37.359375 48.484375 30.078125 48.484375 
Q 22.859375 48.484375 18.828125 43.109375 
Q 14.796875 37.75 14.796875 27.984375 
Q 14.796875 18.265625 18.828125 12.890625 
Q 22.859375 7.515625 30.078125 7.515625 
Q 37.359375 7.515625 41.375 12.890625 
Q 45.40625 18.265625 45.40625 27.984375 
z
M 54.390625 6.78125 
Q 54.390625 -7.171875 48.1875 -13.984375 
Q 42 -20.796875 29.203125 -20.796875 
Q 24.46875 -20.796875 20.265625 -20.09375 
Q 16.0625 -19.390625 12.109375 -17.921875 
L 12.109375 -9.1875 
Q 16.0625 -11.328125 19.921875 -12.34375 
Q 23.78125 -13.375 27.78125 -13.375 
Q 36.625 -13.375 41.015625 -8.765625 
Q 45.40625 -4.15625 45.40625 5.171875 
L 45.40625 9.625 
Q 42.625 4.78125 38.28125 2.390625 
Q 33.9375 0 27.875 0 
Q 17.828125 0 11.671875 7.65625 
Q 5.515625 15.328125 5.515625 27.984375 
Q 5.515625 40.671875 11.671875 48.328125 
Q 17.828125 56 27.875 56 
Q 33.9375 56 38.28125 53.609375 
Q 42.625 51.21875 45.40625 46.390625 
L 45.40625 54.6875 
L 54.390625 54.6875 
z
" id="DejaVuSans-103"/>
       <path d="M 54.890625 33.015625 
L 54.890625 0 
L 45.90625 0 
L 45.90625 32.71875 
Q 45.90625 40.484375 42.875 44.328125 
Q 39.84375 48.1875 33.796875 48.1875 
Q 26.515625 48.1875 22.3125 43.546875 
Q 18.109375 38.921875 18.109375 30.90625 
L 18.109375 0 
L 9.078125 0 
L 9.078125 75.984375 
L 18.109375 75.984375 
L 18.109375 46.1875 
Q 21.34375 51.125 25.703125 53.5625 
Q 30.078125 56 35.796875 56 
Q 45.21875 56 50.046875 50.171875 
Q 54.890625 44.34375 54.890625 33.015625 
z
" id="DejaVuSans-104"/>
       <path d="M 18.3125 70.21875 
L 18.3125 54.6875 
L 36.8125 54.6875 
L 36.8125 47.703125 
L 18.3125 47.703125 
L 18.3125 18.015625 
Q 18.3125 11.328125 20.140625 9.421875 
Q 21.96875 7.515625 27.59375 7.515625 
L 36.8125 7.515625 
L 36.8125 0 
L 27.59375 0 
Q 17.1875 0 13.234375 3.875 
Q 9.28125 7.765625 9.28125 18.015625 
L 9.28125 47.703125 
L 2.6875 47.703125 
L 2.6875 54.6875 
L 9.28125 54.6875 
L 9.28125 70.21875 
z
" id="DejaVuSans-116"/>
       <path d="M 45.40625 46.390625 
L 45.40625 75.984375 
L 54.390625 75.984375 
L 54.390625 0 
L 45.40625 0 
L 45.40625 8.203125 
Q 42.578125 3.328125 38.25 0.953125 
Q 33.9375 -1.421875 27.875 -1.421875 
Q 17.96875 -1.421875 11.734375 6.484375 
Q 5.515625 14.40625 5.515625 27.296875 
Q 5.515625 40.1875 11.734375 48.09375 
Q 17.96875 56 27.875 56 
Q 33.9375 56 38.25 53.625 
Q 42.578125 51.265625 45.40625 46.390625 
z
M 14.796875 27.296875 
Q 14.796875 17.390625 18.875 11.75 
Q 22.953125 6.109375 30.078125 6.109375 
Q 37.203125 6.109375 41.296875 11.75 
Q 45.40625 17.390625 45.40625 27.296875 
Q 45.40625 37.203125 41.296875 42.84375 
Q 37.203125 48.484375 30.078125 48.484375 
Q 22.953125 48.484375 18.875 42.84375 
Q 14.796875 37.203125 14.796875 27.296875 
z
" id="DejaVuSans-100"/>
       <path id="DejaVuSans-32"/>
       <path d="M 30.609375 48.390625 
Q 23.390625 48.390625 19.1875 42.75 
Q 14.984375 37.109375 14.984375 27.296875 
Q 14.984375 17.484375 19.15625 11.84375 
Q 23.34375 6.203125 30.609375 6.203125 
Q 37.796875 6.203125 41.984375 11.859375 
Q 46.1875 17.53125 46.1875 27.296875 
Q 46.1875 37.015625 41.984375 42.703125 
Q 37.796875 48.390625 30.609375 48.390625 
z
M 30.609375 56 
Q 42.328125 56 49.015625 48.375 
Q 55.71875 40.765625 55.71875 27.296875 
Q 55.71875 13.875 49.015625 6.21875 
Q 42.328125 -1.421875 30.609375 -1.421875 
Q 18.84375 -1.421875 12.171875 6.21875 
Q 5.515625 13.875 5.515625 27.296875 
Q 5.515625 40.765625 12.171875 48.375 
Q 18.84375 56 30.609375 56 
z
" id="DejaVuSans-111"/>
       <path d="M 41.109375 46.296875 
Q 39.59375 47.171875 37.8125 47.578125 
Q 36.03125 48 33.890625 48 
Q 26.265625 48 22.1875 43.046875 
Q 18.109375 38.09375 18.109375 28.8125 
L 18.109375 0 
L 9.078125 0 
L 9.078125 54.6875 
L 18.109375 54.6875 
L 18.109375 46.1875 
Q 20.953125 51.171875 25.484375 53.578125 
Q 30.03125 56 36.53125 56 
Q 37.453125 56 38.578125 55.875 
Q 39.703125 55.765625 41.0625 55.515625 
z
" id="DejaVuSans-114"/>
       <path d="M 44.28125 53.078125 
L 44.28125 44.578125 
Q 40.484375 46.53125 36.375 47.5 
Q 32.28125 48.484375 27.875 48.484375 
Q 21.1875 48.484375 17.84375 46.4375 
Q 14.5 44.390625 14.5 40.28125 
Q 14.5 37.15625 16.890625 35.375 
Q 19.28125 33.59375 26.515625 31.984375 
L 29.59375 31.296875 
Q 39.15625 29.25 43.1875 25.515625 
Q 47.21875 21.78125 47.21875 15.09375 
Q 47.21875 7.46875 41.1875 3.015625 
Q 35.15625 -1.421875 24.609375 -1.421875 
Q 20.21875 -1.421875 15.453125 -0.5625 
Q 10.6875 0.296875 5.421875 2 
L 5.421875 11.28125 
Q 10.40625 8.6875 15.234375 7.390625 
Q 20.0625 6.109375 24.8125 6.109375 
Q 31.15625 6.109375 34.5625 8.28125 
Q 37.984375 10.453125 37.984375 14.40625 
Q 37.984375 18.0625 35.515625 20.015625 
Q 33.0625 21.96875 24.703125 23.78125 
L 21.578125 24.515625 
Q 13.234375 26.265625 9.515625 29.90625 
Q 5.8125 33.546875 5.8125 39.890625 
Q 5.8125 47.609375 11.28125 51.796875 
Q 16.75 56 26.8125 56 
Q 31.78125 56 36.171875 55.265625 
Q 40.578125 54.546875 44.28125 53.078125 
z
" id="DejaVuSans-115"/>
      </defs>
      <g transform="translate(28.71994 238.126436)rotate(-30)scale(0.1 -0.1)">
       <use xlink:href="#DejaVuSans-87"/>
       <use x="98.798828" xlink:href="#DejaVuSans-101"/>
       <use x="160.322266" xlink:href="#DejaVuSans-105"/>
       <use x="188.105469" xlink:href="#DejaVuSans-103"/>
       <use x="251.582031" xlink:href="#DejaVuSans-104"/>
       <use x="314.960938" xlink:href="#DejaVuSans-116"/>
       <use x="354.169922" xlink:href="#DejaVuSans-101"/>
       <use x="415.693359" xlink:href="#DejaVuSans-100"/>
       <use x="479.169922" xlink:href="#DejaVuSans-32"/>
       <use x="510.957031" xlink:href="#DejaVuSans-87"/>
       <use x="609.755859" xlink:href="#DejaVuSans-111"/>
       <use x="670.9375" xlink:href="#DejaVuSans-114"/>
       <use x="712.035156" xlink:href="#DejaVuSans-100"/>
       <use x="775.511719" xlink:href="#DejaVuSans-115"/>
      </g>
     </g>
    </g>
    <g id="xtick_2">
     <g id="line2d_3">
      <path clip-path="url(#paa23a8e617)" d="M 97.62739 183.164746 
L 97.62739 26.8 
" style="fill:none;stroke:#b0b0b0;stroke-linecap:square;stroke-width:0.8;"/>
     </g>
     <g id="line2d_4">
      <g>
       <use style="stroke:#000000;stroke-width:0.8;" x="97.62739" xlink:href="#m16c45e1633" y="183.164746"/>
      </g>
     </g>
     <g id="text_2">
      <!-- Multinomial Naive Bayes -->
      <defs>
       <path d="M 9.8125 72.90625 
L 24.515625 72.90625 
L 43.109375 23.296875 
L 61.8125 72.90625 
L 76.515625 72.90625 
L 76.515625 0 
L 66.890625 0 
L 66.890625 64.015625 
L 48.09375 14.015625 
L 38.1875 14.015625 
L 19.390625 64.015625 
L 19.390625 0 
L 9.8125 0 
z
" id="DejaVuSans-77"/>
       <path d="M 8.5 21.578125 
L 8.5 54.6875 
L 17.484375 54.6875 
L 17.484375 21.921875 
Q 17.484375 14.15625 20.5 10.265625 
Q 23.53125 6.390625 29.59375 6.390625 
Q 36.859375 6.390625 41.078125 11.03125 
Q 45.3125 15.671875 45.3125 23.6875 
L 45.3125 54.6875 
L 54.296875 54.6875 
L 54.296875 0 
L 45.3125 0 
L 45.3125 8.40625 
Q 42.046875 3.421875 37.71875 1 
Q 33.40625 -1.421875 27.6875 -1.421875 
Q 18.265625 -1.421875 13.375 4.4375 
Q 8.5 10.296875 8.5 21.578125 
z
M 31.109375 56 
z
" id="DejaVuSans-117"/>
       <path d="M 9.421875 75.984375 
L 18.40625 75.984375 
L 18.40625 0 
L 9.421875 0 
z
" id="DejaVuSans-108"/>
       <path d="M 54.890625 33.015625 
L 54.890625 0 
L 45.90625 0 
L 45.90625 32.71875 
Q 45.90625 40.484375 42.875 44.328125 
Q 39.84375 48.1875 33.796875 48.1875 
Q 26.515625 48.1875 22.3125 43.546875 
Q 18.109375 38.921875 18.109375 30.90625 
L 18.109375 0 
L 9.078125 0 
L 9.078125 54.6875 
L 18.109375 54.6875 
L 18.109375 46.1875 
Q 21.34375 51.125 25.703125 53.5625 
Q 30.078125 56 35.796875 56 
Q 45.21875 56 50.046875 50.171875 
Q 54.890625 44.34375 54.890625 33.015625 
z
" id="DejaVuSans-110"/>
       <path d="M 52 44.1875 
Q 55.375 50.25 60.0625 53.125 
Q 64.75 56 71.09375 56 
Q 79.640625 56 84.28125 50.015625 
Q 88.921875 44.046875 88.921875 33.015625 
L 88.921875 0 
L 79.890625 0 
L 79.890625 32.71875 
Q 79.890625 40.578125 77.09375 44.375 
Q 74.3125 48.1875 68.609375 48.1875 
Q 61.625 48.1875 57.5625 43.546875 
Q 53.515625 38.921875 53.515625 30.90625 
L 53.515625 0 
L 44.484375 0 
L 44.484375 32.71875 
Q 44.484375 40.625 41.703125 44.40625 
Q 38.921875 48.1875 33.109375 48.1875 
Q 26.21875 48.1875 22.15625 43.53125 
Q 18.109375 38.875 18.109375 30.90625 
L 18.109375 0 
L 9.078125 0 
L 9.078125 54.6875 
L 18.109375 54.6875 
L 18.109375 46.1875 
Q 21.1875 51.21875 25.484375 53.609375 
Q 29.78125 56 35.6875 56 
Q 41.65625 56 45.828125 52.96875 
Q 50 49.953125 52 44.1875 
z
" id="DejaVuSans-109"/>
       <path d="M 34.28125 27.484375 
Q 23.390625 27.484375 19.1875 25 
Q 14.984375 22.515625 14.984375 16.5 
Q 14.984375 11.71875 18.140625 8.90625 
Q 21.296875 6.109375 26.703125 6.109375 
Q 34.1875 6.109375 38.703125 11.40625 
Q 43.21875 16.703125 43.21875 25.484375 
L 43.21875 27.484375 
z
M 52.203125 31.203125 
L 52.203125 0 
L 43.21875 0 
L 43.21875 8.296875 
Q 40.140625 3.328125 35.546875 0.953125 
Q 30.953125 -1.421875 24.3125 -1.421875 
Q 15.921875 -1.421875 10.953125 3.296875 
Q 6 8.015625 6 15.921875 
Q 6 25.140625 12.171875 29.828125 
Q 18.359375 34.515625 30.609375 34.515625 
L 43.21875 34.515625 
L 43.21875 35.40625 
Q 43.21875 41.609375 39.140625 45 
Q 35.0625 48.390625 27.6875 48.390625 
Q 23 48.390625 18.546875 47.265625 
Q 14.109375 46.140625 10.015625 43.890625 
L 10.015625 52.203125 
Q 14.9375 54.109375 19.578125 55.046875 
Q 24.21875 56 28.609375 56 
Q 40.484375 56 46.34375 49.84375 
Q 52.203125 43.703125 52.203125 31.203125 
z
" id="DejaVuSans-97"/>
       <path d="M 9.8125 72.90625 
L 23.09375 72.90625 
L 55.421875 11.921875 
L 55.421875 72.90625 
L 64.984375 72.90625 
L 64.984375 0 
L 51.703125 0 
L 19.390625 60.984375 
L 19.390625 0 
L 9.8125 0 
z
" id="DejaVuSans-78"/>
       <path d="M 2.984375 54.6875 
L 12.5 54.6875 
L 29.59375 8.796875 
L 46.6875 54.6875 
L 56.203125 54.6875 
L 35.6875 0 
L 23.484375 0 
z
" id="DejaVuSans-118"/>
       <path d="M 19.671875 34.8125 
L 19.671875 8.109375 
L 35.5 8.109375 
Q 43.453125 8.109375 47.28125 11.40625 
Q 51.125 14.703125 51.125 21.484375 
Q 51.125 28.328125 47.28125 31.5625 
Q 43.453125 34.8125 35.5 34.8125 
z
M 19.671875 64.796875 
L 19.671875 42.828125 
L 34.28125 42.828125 
Q 41.5 42.828125 45.03125 45.53125 
Q 48.578125 48.25 48.578125 53.8125 
Q 48.578125 59.328125 45.03125 62.0625 
Q 41.5 64.796875 34.28125 64.796875 
z
M 9.8125 72.90625 
L 35.015625 72.90625 
Q 46.296875 72.90625 52.390625 68.21875 
Q 58.5 63.53125 58.5 54.890625 
Q 58.5 48.1875 55.375 44.234375 
Q 52.25 40.28125 46.1875 39.3125 
Q 53.46875 37.75 57.5 32.78125 
Q 61.53125 27.828125 61.53125 20.40625 
Q 61.53125 10.640625 54.890625 5.3125 
Q 48.25 0 35.984375 0 
L 9.8125 0 
z
" id="DejaVuSans-66"/>
       <path d="M 32.171875 -5.078125 
Q 28.375 -14.84375 24.75 -17.8125 
Q 21.140625 -20.796875 15.09375 -20.796875 
L 7.90625 -20.796875 
L 7.90625 -13.28125 
L 13.1875 -13.28125 
Q 16.890625 -13.28125 18.9375 -11.515625 
Q 21 -9.765625 23.484375 -3.21875 
L 25.09375 0.875 
L 2.984375 54.6875 
L 12.5 54.6875 
L 29.59375 11.921875 
L 46.6875 54.6875 
L 56.203125 54.6875 
z
" id="DejaVuSans-121"/>
      </defs>
      <g transform="translate(45.56925 258.449873)rotate(-30)scale(0.1 -0.1)">
       <use xlink:href="#DejaVuSans-77"/>
       <use x="86.279297" xlink:href="#DejaVuSans-117"/>
       <use x="149.658203" xlink:href="#DejaVuSans-108"/>
       <use x="177.441406" xlink:href="#DejaVuSans-116"/>
       <use x="216.650391" xlink:href="#DejaVuSans-105"/>
       <use x="244.433594" xlink:href="#DejaVuSans-110"/>
       <use x="307.8125" xlink:href="#DejaVuSans-111"/>
       <use x="368.994141" xlink:href="#DejaVuSans-109"/>
       <use x="466.40625" xlink:href="#DejaVuSans-105"/>
       <use x="494.189453" xlink:href="#DejaVuSans-97"/>
       <use x="555.46875" xlink:href="#DejaVuSans-108"/>
       <use x="583.251953" xlink:href="#DejaVuSans-32"/>
       <use x="615.039062" xlink:href="#DejaVuSans-78"/>
       <use x="689.84375" xlink:href="#DejaVuSans-97"/>
       <use x="751.123047" xlink:href="#DejaVuSans-105"/>
       <use x="778.90625" xlink:href="#DejaVuSans-118"/>
       <use x="838.085938" xlink:href="#DejaVuSans-101"/>
       <use x="899.609375" xlink:href="#DejaVuSans-32"/>
       <use x="931.396484" xlink:href="#DejaVuSans-66"/>
       <use x="1000" xlink:href="#DejaVuSans-97"/>
       <use x="1061.279297" xlink:href="#DejaVuSans-121"/>
       <use x="1120.458984" xlink:href="#DejaVuSans-101"/>
       <use x="1181.982422" xlink:href="#DejaVuSans-115"/>
      </g>
     </g>
    </g>
    <g id="xtick_3">
     <g id="line2d_5">
      <path clip-path="url(#paa23a8e617)" d="M 132.077314 183.164746 
L 132.077314 26.8 
" style="fill:none;stroke:#b0b0b0;stroke-linecap:square;stroke-width:0.8;"/>
     </g>
     <g id="line2d_6">
      <g>
       <use style="stroke:#000000;stroke-width:0.8;" x="132.077314" xlink:href="#m16c45e1633" y="183.164746"/>
      </g>
     </g>
     <g id="text_3">
      <!-- Support Vector Machine -->
      <defs>
       <path d="M 53.515625 70.515625 
L 53.515625 60.890625 
Q 47.90625 63.578125 42.921875 64.890625 
Q 37.9375 66.21875 33.296875 66.21875 
Q 25.25 66.21875 20.875 63.09375 
Q 16.5 59.96875 16.5 54.203125 
Q 16.5 49.359375 19.40625 46.890625 
Q 22.3125 44.4375 30.421875 42.921875 
L 36.375 41.703125 
Q 47.40625 39.59375 52.65625 34.296875 
Q 57.90625 29 57.90625 20.125 
Q 57.90625 9.515625 50.796875 4.046875 
Q 43.703125 -1.421875 29.984375 -1.421875 
Q 24.8125 -1.421875 18.96875 -0.25 
Q 13.140625 0.921875 6.890625 3.21875 
L 6.890625 13.375 
Q 12.890625 10.015625 18.65625 8.296875 
Q 24.421875 6.59375 29.984375 6.59375 
Q 38.421875 6.59375 43.015625 9.90625 
Q 47.609375 13.234375 47.609375 19.390625 
Q 47.609375 24.75 44.3125 27.78125 
Q 41.015625 30.8125 33.5 32.328125 
L 27.484375 33.5 
Q 16.453125 35.6875 11.515625 40.375 
Q 6.59375 45.0625 6.59375 53.421875 
Q 6.59375 63.09375 13.40625 68.65625 
Q 20.21875 74.21875 32.171875 74.21875 
Q 37.3125 74.21875 42.625 73.28125 
Q 47.953125 72.359375 53.515625 70.515625 
z
" id="DejaVuSans-83"/>
       <path d="M 18.109375 8.203125 
L 18.109375 -20.796875 
L 9.078125 -20.796875 
L 9.078125 54.6875 
L 18.109375 54.6875 
L 18.109375 46.390625 
Q 20.953125 51.265625 25.265625 53.625 
Q 29.59375 56 35.59375 56 
Q 45.5625 56 51.78125 48.09375 
Q 58.015625 40.1875 58.015625 27.296875 
Q 58.015625 14.40625 51.78125 6.484375 
Q 45.5625 -1.421875 35.59375 -1.421875 
Q 29.59375 -1.421875 25.265625 0.953125 
Q 20.953125 3.328125 18.109375 8.203125 
z
M 48.6875 27.296875 
Q 48.6875 37.203125 44.609375 42.84375 
Q 40.53125 48.484375 33.40625 48.484375 
Q 26.265625 48.484375 22.1875 42.84375 
Q 18.109375 37.203125 18.109375 27.296875 
Q 18.109375 17.390625 22.1875 11.75 
Q 26.265625 6.109375 33.40625 6.109375 
Q 40.53125 6.109375 44.609375 11.75 
Q 48.6875 17.390625 48.6875 27.296875 
z
" id="DejaVuSans-112"/>
       <path d="M 28.609375 0 
L 0.78125 72.90625 
L 11.078125 72.90625 
L 34.1875 11.53125 
L 57.328125 72.90625 
L 67.578125 72.90625 
L 39.796875 0 
z
" id="DejaVuSans-86"/>
       <path d="M 48.78125 52.59375 
L 48.78125 44.1875 
Q 44.96875 46.296875 41.140625 47.34375 
Q 37.3125 48.390625 33.40625 48.390625 
Q 24.65625 48.390625 19.8125 42.84375 
Q 14.984375 37.3125 14.984375 27.296875 
Q 14.984375 17.28125 19.8125 11.734375 
Q 24.65625 6.203125 33.40625 6.203125 
Q 37.3125 6.203125 41.140625 7.25 
Q 44.96875 8.296875 48.78125 10.40625 
L 48.78125 2.09375 
Q 45.015625 0.34375 40.984375 -0.53125 
Q 36.96875 -1.421875 32.421875 -1.421875 
Q 20.0625 -1.421875 12.78125 6.34375 
Q 5.515625 14.109375 5.515625 27.296875 
Q 5.515625 40.671875 12.859375 48.328125 
Q 20.21875 56 33.015625 56 
Q 37.15625 56 41.109375 55.140625 
Q 45.0625 54.296875 48.78125 52.59375 
z
" id="DejaVuSans-99"/>
      </defs>
      <g transform="translate(81.330391 256.935811)rotate(-30)scale(0.1 -0.1)">
       <use xlink:href="#DejaVuSans-83"/>
       <use x="63.476562" xlink:href="#DejaVuSans-117"/>
       <use x="126.855469" xlink:href="#DejaVuSans-112"/>
       <use x="190.332031" xlink:href="#DejaVuSans-112"/>
       <use x="253.808594" xlink:href="#DejaVuSans-111"/>
       <use x="314.990234" xlink:href="#DejaVuSans-114"/>
       <use x="356.103516" xlink:href="#DejaVuSans-116"/>
       <use x="395.3125" xlink:href="#DejaVuSans-32"/>
       <use x="427.099609" xlink:href="#DejaVuSans-86"/>
       <use x="495.398438" xlink:href="#DejaVuSans-101"/>
       <use x="556.921875" xlink:href="#DejaVuSans-99"/>
       <use x="611.902344" xlink:href="#DejaVuSans-116"/>
       <use x="651.111328" xlink:href="#DejaVuSans-111"/>
       <use x="712.292969" xlink:href="#DejaVuSans-114"/>
       <use x="753.40625" xlink:href="#DejaVuSans-32"/>
       <use x="785.193359" xlink:href="#DejaVuSans-77"/>
       <use x="871.472656" xlink:href="#DejaVuSans-97"/>
       <use x="932.751953" xlink:href="#DejaVuSans-99"/>
       <use x="987.732422" xlink:href="#DejaVuSans-104"/>
       <use x="1051.111328" xlink:href="#DejaVuSans-105"/>
       <use x="1078.894531" xlink:href="#DejaVuSans-110"/>
       <use x="1142.273438" xlink:href="#DejaVuSans-101"/>
      </g>
     </g>
    </g>
    <g id="xtick_4">
     <g id="line2d_7">
      <path clip-path="url(#paa23a8e617)" d="M 166.527238 183.164746 
L 166.527238 26.8 
" style="fill:none;stroke:#b0b0b0;stroke-linecap:square;stroke-width:0.8;"/>
     </g>
     <g id="line2d_8">
      <g>
       <use style="stroke:#000000;stroke-width:0.8;" x="166.527238" xlink:href="#m16c45e1633" y="183.164746"/>
      </g>
     </g>
     <g id="text_4">
      <!-- Gaussian Naive Bayes -->
      <defs>
       <path d="M 59.515625 10.40625 
L 59.515625 29.984375 
L 43.40625 29.984375 
L 43.40625 38.09375 
L 69.28125 38.09375 
L 69.28125 6.78125 
Q 63.578125 2.734375 56.6875 0.65625 
Q 49.8125 -1.421875 42 -1.421875 
Q 24.90625 -1.421875 15.25 8.5625 
Q 5.609375 18.5625 5.609375 36.375 
Q 5.609375 54.25 15.25 64.234375 
Q 24.90625 74.21875 42 74.21875 
Q 49.125 74.21875 55.546875 72.453125 
Q 61.96875 70.703125 67.390625 67.28125 
L 67.390625 56.78125 
Q 61.921875 61.421875 55.765625 63.765625 
Q 49.609375 66.109375 42.828125 66.109375 
Q 29.4375 66.109375 22.71875 58.640625 
Q 16.015625 51.171875 16.015625 36.375 
Q 16.015625 21.625 22.71875 14.15625 
Q 29.4375 6.6875 42.828125 6.6875 
Q 48.046875 6.6875 52.140625 7.59375 
Q 56.25 8.5 59.515625 10.40625 
z
" id="DejaVuSans-71"/>
      </defs>
      <g transform="translate(119.858753 252.226436)rotate(-30)scale(0.1 -0.1)">
       <use xlink:href="#DejaVuSans-71"/>
       <use x="77.490234" xlink:href="#DejaVuSans-97"/>
       <use x="138.769531" xlink:href="#DejaVuSans-117"/>
       <use x="202.148438" xlink:href="#DejaVuSans-115"/>
       <use x="254.248047" xlink:href="#DejaVuSans-115"/>
       <use x="306.347656" xlink:href="#DejaVuSans-105"/>
       <use x="334.130859" xlink:href="#DejaVuSans-97"/>
       <use x="395.410156" xlink:href="#DejaVuSans-110"/>
       <use x="458.789062" xlink:href="#DejaVuSans-32"/>
       <use x="490.576172" xlink:href="#DejaVuSans-78"/>
       <use x="565.380859" xlink:href="#DejaVuSans-97"/>
       <use x="626.660156" xlink:href="#DejaVuSans-105"/>
       <use x="654.443359" xlink:href="#DejaVuSans-118"/>
       <use x="713.623047" xlink:href="#DejaVuSans-101"/>
       <use x="775.146484" xlink:href="#DejaVuSans-32"/>
       <use x="806.933594" xlink:href="#DejaVuSans-66"/>
       <use x="875.537109" xlink:href="#DejaVuSans-97"/>
       <use x="936.816406" xlink:href="#DejaVuSans-121"/>
       <use x="995.996094" xlink:href="#DejaVuSans-101"/>
       <use x="1057.519531" xlink:href="#DejaVuSans-115"/>
      </g>
     </g>
    </g>
    <g id="xtick_5">
     <g id="line2d_9">
      <path clip-path="url(#paa23a8e617)" d="M 200.977161 183.164746 
L 200.977161 26.8 
" style="fill:none;stroke:#b0b0b0;stroke-linecap:square;stroke-width:0.8;"/>
     </g>
     <g id="line2d_10">
      <g>
       <use style="stroke:#000000;stroke-width:0.8;" x="200.977161" xlink:href="#m16c45e1633" y="183.164746"/>
      </g>
     </g>
     <g id="text_5">
      <!-- Decision Tree Classifier -->
      <defs>
       <path d="M 19.671875 64.796875 
L 19.671875 8.109375 
L 31.59375 8.109375 
Q 46.6875 8.109375 53.6875 14.9375 
Q 60.6875 21.78125 60.6875 36.53125 
Q 60.6875 51.171875 53.6875 57.984375 
Q 46.6875 64.796875 31.59375 64.796875 
z
M 9.8125 72.90625 
L 30.078125 72.90625 
Q 51.265625 72.90625 61.171875 64.09375 
Q 71.09375 55.28125 71.09375 36.53125 
Q 71.09375 17.671875 61.125 8.828125 
Q 51.171875 0 30.078125 0 
L 9.8125 0 
z
" id="DejaVuSans-68"/>
       <path d="M -0.296875 72.90625 
L 61.375 72.90625 
L 61.375 64.59375 
L 35.5 64.59375 
L 35.5 0 
L 25.59375 0 
L 25.59375 64.59375 
L -0.296875 64.59375 
z
" id="DejaVuSans-84"/>
       <path d="M 64.40625 67.28125 
L 64.40625 56.890625 
Q 59.421875 61.53125 53.78125 63.8125 
Q 48.140625 66.109375 41.796875 66.109375 
Q 29.296875 66.109375 22.65625 58.46875 
Q 16.015625 50.828125 16.015625 36.375 
Q 16.015625 21.96875 22.65625 14.328125 
Q 29.296875 6.6875 41.796875 6.6875 
Q 48.140625 6.6875 53.78125 8.984375 
Q 59.421875 11.28125 64.40625 15.921875 
L 64.40625 5.609375 
Q 59.234375 2.09375 53.4375 0.328125 
Q 47.65625 -1.421875 41.21875 -1.421875 
Q 24.65625 -1.421875 15.125 8.703125 
Q 5.609375 18.84375 5.609375 36.375 
Q 5.609375 53.953125 15.125 64.078125 
Q 24.65625 74.21875 41.21875 74.21875 
Q 47.75 74.21875 53.53125 72.484375 
Q 59.328125 70.75 64.40625 67.28125 
z
" id="DejaVuSans-67"/>
       <path d="M 37.109375 75.984375 
L 37.109375 68.5 
L 28.515625 68.5 
Q 23.6875 68.5 21.796875 66.546875 
Q 19.921875 64.59375 19.921875 59.515625 
L 19.921875 54.6875 
L 34.71875 54.6875 
L 34.71875 47.703125 
L 19.921875 47.703125 
L 19.921875 0 
L 10.890625 0 
L 10.890625 47.703125 
L 2.296875 47.703125 
L 2.296875 54.6875 
L 10.890625 54.6875 
L 10.890625 58.5 
Q 10.890625 67.625 15.140625 71.796875 
Q 19.390625 75.984375 28.609375 75.984375 
z
" id="DejaVuSans-102"/>
      </defs>
      <g transform="translate(151.660534 255.284248)rotate(-30)scale(0.1 -0.1)">
       <use xlink:href="#DejaVuSans-68"/>
       <use x="77.001953" xlink:href="#DejaVuSans-101"/>
       <use x="138.525391" xlink:href="#DejaVuSans-99"/>
       <use x="193.505859" xlink:href="#DejaVuSans-105"/>
       <use x="221.289062" xlink:href="#DejaVuSans-115"/>
       <use x="273.388672" xlink:href="#DejaVuSans-105"/>
       <use x="301.171875" xlink:href="#DejaVuSans-111"/>
       <use x="362.353516" xlink:href="#DejaVuSans-110"/>
       <use x="425.732422" xlink:href="#DejaVuSans-32"/>
       <use x="457.519531" xlink:href="#DejaVuSans-84"/>
       <use x="518.384766" xlink:href="#DejaVuSans-114"/>
       <use x="559.466797" xlink:href="#DejaVuSans-101"/>
       <use x="620.990234" xlink:href="#DejaVuSans-101"/>
       <use x="682.513672" xlink:href="#DejaVuSans-32"/>
       <use x="714.300781" xlink:href="#DejaVuSans-67"/>
       <use x="784.125" xlink:href="#DejaVuSans-108"/>
       <use x="811.908203" xlink:href="#DejaVuSans-97"/>
       <use x="873.1875" xlink:href="#DejaVuSans-115"/>
       <use x="925.287109" xlink:href="#DejaVuSans-115"/>
       <use x="977.386719" xlink:href="#DejaVuSans-105"/>
       <use x="1005.169922" xlink:href="#DejaVuSans-102"/>
       <use x="1040.375" xlink:href="#DejaVuSans-105"/>
       <use x="1068.158203" xlink:href="#DejaVuSans-101"/>
       <use x="1129.681641" xlink:href="#DejaVuSans-114"/>
      </g>
     </g>
    </g>
    <g id="xtick_6">
     <g id="line2d_11">
      <path clip-path="url(#paa23a8e617)" d="M 235.427085 183.164746 
L 235.427085 26.8 
" style="fill:none;stroke:#b0b0b0;stroke-linecap:square;stroke-width:0.8;"/>
     </g>
     <g id="line2d_12">
      <g>
       <use style="stroke:#000000;stroke-width:0.8;" x="235.427085" xlink:href="#m16c45e1633" y="183.164746"/>
      </g>
     </g>
     <g id="text_6">
      <!-- Complement Naive Bayes -->
      <g transform="translate(180.79252 261.424873)rotate(-30)scale(0.1 -0.1)">
       <use xlink:href="#DejaVuSans-67"/>
       <use x="69.824219" xlink:href="#DejaVuSans-111"/>
       <use x="131.005859" xlink:href="#DejaVuSans-109"/>
       <use x="228.417969" xlink:href="#DejaVuSans-112"/>
       <use x="291.894531" xlink:href="#DejaVuSans-108"/>
       <use x="319.677734" xlink:href="#DejaVuSans-101"/>
       <use x="381.201172" xlink:href="#DejaVuSans-109"/>
       <use x="478.613281" xlink:href="#DejaVuSans-101"/>
       <use x="540.136719" xlink:href="#DejaVuSans-110"/>
       <use x="603.515625" xlink:href="#DejaVuSans-116"/>
       <use x="642.724609" xlink:href="#DejaVuSans-32"/>
       <use x="674.511719" xlink:href="#DejaVuSans-78"/>
       <use x="749.316406" xlink:href="#DejaVuSans-97"/>
       <use x="810.595703" xlink:href="#DejaVuSans-105"/>
       <use x="838.378906" xlink:href="#DejaVuSans-118"/>
       <use x="897.558594" xlink:href="#DejaVuSans-101"/>
       <use x="959.082031" xlink:href="#DejaVuSans-32"/>
       <use x="990.869141" xlink:href="#DejaVuSans-66"/>
       <use x="1059.472656" xlink:href="#DejaVuSans-97"/>
       <use x="1120.751953" xlink:href="#DejaVuSans-121"/>
       <use x="1179.931641" xlink:href="#DejaVuSans-101"/>
       <use x="1241.455078" xlink:href="#DejaVuSans-115"/>
      </g>
     </g>
    </g>
    <g id="xtick_7">
     <g id="line2d_13">
      <path clip-path="url(#paa23a8e617)" d="M 269.877009 183.164746 
L 269.877009 26.8 
" style="fill:none;stroke:#b0b0b0;stroke-linecap:square;stroke-width:0.8;"/>
     </g>
     <g id="line2d_14">
      <g>
       <use style="stroke:#000000;stroke-width:0.8;" x="269.877009" xlink:href="#m16c45e1633" y="183.164746"/>
      </g>
     </g>
     <g id="text_7">
      <!-- Random Forest Classifier -->
      <defs>
       <path d="M 44.390625 34.1875 
Q 47.5625 33.109375 50.5625 29.59375 
Q 53.5625 26.078125 56.59375 19.921875 
L 66.609375 0 
L 56 0 
L 46.6875 18.703125 
Q 43.0625 26.03125 39.671875 28.421875 
Q 36.28125 30.8125 30.421875 30.8125 
L 19.671875 30.8125 
L 19.671875 0 
L 9.8125 0 
L 9.8125 72.90625 
L 32.078125 72.90625 
Q 44.578125 72.90625 50.734375 67.671875 
Q 56.890625 62.453125 56.890625 51.90625 
Q 56.890625 45.015625 53.6875 40.46875 
Q 50.484375 35.9375 44.390625 34.1875 
z
M 19.671875 64.796875 
L 19.671875 38.921875 
L 32.078125 38.921875 
Q 39.203125 38.921875 42.84375 42.21875 
Q 46.484375 45.515625 46.484375 51.90625 
Q 46.484375 58.296875 42.84375 61.546875 
Q 39.203125 64.796875 32.078125 64.796875 
z
" id="DejaVuSans-82"/>
       <path d="M 9.8125 72.90625 
L 51.703125 72.90625 
L 51.703125 64.59375 
L 19.671875 64.59375 
L 19.671875 43.109375 
L 48.578125 43.109375 
L 48.578125 34.8125 
L 19.671875 34.8125 
L 19.671875 0 
L 9.8125 0 
z
" id="DejaVuSans-70"/>
      </defs>
      <g transform="translate(217.182206 259.18503)rotate(-30)scale(0.1 -0.1)">
       <use xlink:href="#DejaVuSans-82"/>
       <use x="69.451172" xlink:href="#DejaVuSans-97"/>
       <use x="130.730469" xlink:href="#DejaVuSans-110"/>
       <use x="194.109375" xlink:href="#DejaVuSans-100"/>
       <use x="257.585938" xlink:href="#DejaVuSans-111"/>
       <use x="318.767578" xlink:href="#DejaVuSans-109"/>
       <use x="416.179688" xlink:href="#DejaVuSans-32"/>
       <use x="447.966797" xlink:href="#DejaVuSans-70"/>
       <use x="505.439453" xlink:href="#DejaVuSans-111"/>
       <use x="566.621094" xlink:href="#DejaVuSans-114"/>
       <use x="607.703125" xlink:href="#DejaVuSans-101"/>
       <use x="669.226562" xlink:href="#DejaVuSans-115"/>
       <use x="721.326172" xlink:href="#DejaVuSans-116"/>
       <use x="760.535156" xlink:href="#DejaVuSans-32"/>
       <use x="792.322266" xlink:href="#DejaVuSans-67"/>
       <use x="862.146484" xlink:href="#DejaVuSans-108"/>
       <use x="889.929688" xlink:href="#DejaVuSans-97"/>
       <use x="951.208984" xlink:href="#DejaVuSans-115"/>
       <use x="1003.308594" xlink:href="#DejaVuSans-115"/>
       <use x="1055.408203" xlink:href="#DejaVuSans-105"/>
       <use x="1083.191406" xlink:href="#DejaVuSans-102"/>
       <use x="1118.396484" xlink:href="#DejaVuSans-105"/>
       <use x="1146.179688" xlink:href="#DejaVuSans-101"/>
       <use x="1207.703125" xlink:href="#DejaVuSans-114"/>
      </g>
     </g>
    </g>
    <g id="xtick_8">
     <g id="line2d_15">
      <path clip-path="url(#paa23a8e617)" d="M 304.326933 183.164746 
L 304.326933 26.8 
" style="fill:none;stroke:#b0b0b0;stroke-linecap:square;stroke-width:0.8;"/>
     </g>
     <g id="line2d_16">
      <g>
       <use style="stroke:#000000;stroke-width:0.8;" x="304.326933" xlink:href="#m16c45e1633" y="183.164746"/>
      </g>
     </g>
     <g id="text_8">
      <!-- Bernoulli Naive Bayes -->
      <g transform="translate(258.362094 251.413936)rotate(-30)scale(0.1 -0.1)">
       <use xlink:href="#DejaVuSans-66"/>
       <use x="68.603516" xlink:href="#DejaVuSans-101"/>
       <use x="130.126953" xlink:href="#DejaVuSans-114"/>
       <use x="171.224609" xlink:href="#DejaVuSans-110"/>
       <use x="234.603516" xlink:href="#DejaVuSans-111"/>
       <use x="295.785156" xlink:href="#DejaVuSans-117"/>
       <use x="359.164062" xlink:href="#DejaVuSans-108"/>
       <use x="386.947266" xlink:href="#DejaVuSans-108"/>
       <use x="414.730469" xlink:href="#DejaVuSans-105"/>
       <use x="442.513672" xlink:href="#DejaVuSans-32"/>
       <use x="474.300781" xlink:href="#DejaVuSans-78"/>
       <use x="549.105469" xlink:href="#DejaVuSans-97"/>
       <use x="610.384766" xlink:href="#DejaVuSans-105"/>
       <use x="638.167969" xlink:href="#DejaVuSans-118"/>
       <use x="697.347656" xlink:href="#DejaVuSans-101"/>
       <use x="758.871094" xlink:href="#DejaVuSans-32"/>
       <use x="790.658203" xlink:href="#DejaVuSans-66"/>
       <use x="859.261719" xlink:href="#DejaVuSans-97"/>
       <use x="920.541016" xlink:href="#DejaVuSans-121"/>
       <use x="979.720703" xlink:href="#DejaVuSans-101"/>
       <use x="1041.244141" xlink:href="#DejaVuSans-115"/>
      </g>
     </g>
    </g>
    <g id="xtick_9">
     <g id="line2d_17">
      <path clip-path="url(#paa23a8e617)" d="M 338.776857 183.164746 
L 338.776857 26.8 
" style="fill:none;stroke:#b0b0b0;stroke-linecap:square;stroke-width:0.8;"/>
     </g>
     <g id="line2d_18">
      <g>
       <use style="stroke:#000000;stroke-width:0.8;" x="338.776857" xlink:href="#m16c45e1633" y="183.164746"/>
      </g>
     </g>
     <g id="text_9">
      <!-- Logistic Regression -->
      <defs>
       <path d="M 9.8125 72.90625 
L 19.671875 72.90625 
L 19.671875 8.296875 
L 55.171875 8.296875 
L 55.171875 0 
L 9.8125 0 
z
" id="DejaVuSans-76"/>
      </defs>
      <g transform="translate(298.259183 245.124092)rotate(-30)scale(0.1 -0.1)">
       <use xlink:href="#DejaVuSans-76"/>
       <use x="55.697266" xlink:href="#DejaVuSans-111"/>
       <use x="116.878906" xlink:href="#DejaVuSans-103"/>
       <use x="180.355469" xlink:href="#DejaVuSans-105"/>
       <use x="208.138672" xlink:href="#DejaVuSans-115"/>
       <use x="260.238281" xlink:href="#DejaVuSans-116"/>
       <use x="299.447266" xlink:href="#DejaVuSans-105"/>
       <use x="327.230469" xlink:href="#DejaVuSans-99"/>
       <use x="382.210938" xlink:href="#DejaVuSans-32"/>
       <use x="413.998047" xlink:href="#DejaVuSans-82"/>
       <use x="483.417969" xlink:href="#DejaVuSans-101"/>
       <use x="544.941406" xlink:href="#DejaVuSans-103"/>
       <use x="608.417969" xlink:href="#DejaVuSans-114"/>
       <use x="649.5" xlink:href="#DejaVuSans-101"/>
       <use x="711.023438" xlink:href="#DejaVuSans-115"/>
       <use x="763.123047" xlink:href="#DejaVuSans-115"/>
       <use x="815.222656" xlink:href="#DejaVuSans-105"/>
       <use x="843.005859" xlink:href="#DejaVuSans-111"/>
       <use x="904.1875" xlink:href="#DejaVuSans-110"/>
      </g>
     </g>
    </g>
    <g id="xtick_10">
     <g id="line2d_19">
      <path clip-path="url(#paa23a8e617)" d="M 373.226781 183.164746 
L 373.226781 26.8 
" style="fill:none;stroke:#b0b0b0;stroke-linecap:square;stroke-width:0.8;"/>
     </g>
     <g id="line2d_20">
      <g>
       <use style="stroke:#000000;stroke-width:0.8;" x="373.226781" xlink:href="#m16c45e1633" y="183.164746"/>
      </g>
     </g>
     <g id="text_10">
      <!-- K-Nearest Neighbour -->
      <defs>
       <path d="M 9.8125 72.90625 
L 19.671875 72.90625 
L 19.671875 42.09375 
L 52.390625 72.90625 
L 65.09375 72.90625 
L 28.90625 38.921875 
L 67.671875 0 
L 54.6875 0 
L 19.671875 35.109375 
L 19.671875 0 
L 9.8125 0 
z
" id="DejaVuSans-75"/>
       <path d="M 4.890625 31.390625 
L 31.203125 31.390625 
L 31.203125 23.390625 
L 4.890625 23.390625 
z
" id="DejaVuSans-45"/>
       <path d="M 48.6875 27.296875 
Q 48.6875 37.203125 44.609375 42.84375 
Q 40.53125 48.484375 33.40625 48.484375 
Q 26.265625 48.484375 22.1875 42.84375 
Q 18.109375 37.203125 18.109375 27.296875 
Q 18.109375 17.390625 22.1875 11.75 
Q 26.265625 6.109375 33.40625 6.109375 
Q 40.53125 6.109375 44.609375 11.75 
Q 48.6875 17.390625 48.6875 27.296875 
z
M 18.109375 46.390625 
Q 20.953125 51.265625 25.265625 53.625 
Q 29.59375 56 35.59375 56 
Q 45.5625 56 51.78125 48.09375 
Q 58.015625 40.1875 58.015625 27.296875 
Q 58.015625 14.40625 51.78125 6.484375 
Q 45.5625 -1.421875 35.59375 -1.421875 
Q 29.59375 -1.421875 25.265625 0.953125 
Q 20.953125 3.328125 18.109375 8.203125 
L 18.109375 0 
L 9.078125 0 
L 9.078125 75.984375 
L 18.109375 75.984375 
z
" id="DejaVuSans-98"/>
      </defs>
      <g transform="translate(329.358671 248.992842)rotate(-30)scale(0.1 -0.1)">
       <use xlink:href="#DejaVuSans-75"/>
       <use x="65.419922" xlink:href="#DejaVuSans-45"/>
       <use x="101.503906" xlink:href="#DejaVuSans-78"/>
       <use x="176.308594" xlink:href="#DejaVuSans-101"/>
       <use x="237.832031" xlink:href="#DejaVuSans-97"/>
       <use x="299.111328" xlink:href="#DejaVuSans-114"/>
       <use x="340.193359" xlink:href="#DejaVuSans-101"/>
       <use x="401.716797" xlink:href="#DejaVuSans-115"/>
       <use x="453.816406" xlink:href="#DejaVuSans-116"/>
       <use x="493.025391" xlink:href="#DejaVuSans-32"/>
       <use x="524.8125" xlink:href="#DejaVuSans-78"/>
       <use x="599.617188" xlink:href="#DejaVuSans-101"/>
       <use x="661.140625" xlink:href="#DejaVuSans-105"/>
       <use x="688.923828" xlink:href="#DejaVuSans-103"/>
       <use x="752.400391" xlink:href="#DejaVuSans-104"/>
       <use x="815.779297" xlink:href="#DejaVuSans-98"/>
       <use x="879.255859" xlink:href="#DejaVuSans-111"/>
       <use x="940.4375" xlink:href="#DejaVuSans-117"/>
       <use x="1003.816406" xlink:href="#DejaVuSans-114"/>
      </g>
     </g>
    </g>
    <g id="text_11">
     <!-- Models -->
     <g transform="translate(200.584155 274.824373)scale(0.1 -0.1)">
      <use xlink:href="#DejaVuSans-77"/>
      <use x="86.279297" xlink:href="#DejaVuSans-111"/>
      <use x="147.460938" xlink:href="#DejaVuSans-100"/>
      <use x="210.9375" xlink:href="#DejaVuSans-101"/>
      <use x="272.460938" xlink:href="#DejaVuSans-108"/>
      <use x="300.244141" xlink:href="#DejaVuSans-115"/>
     </g>
    </g>
   </g>
   <g id="matplotlib.axis_2">
    <g id="ytick_1">
     <g id="line2d_21">
      <path clip-path="url(#paa23a8e617)" d="M 47.675 183.164746 
L 388.729247 183.164746 
" style="fill:none;stroke:#b0b0b0;stroke-linecap:square;stroke-width:0.8;"/>
     </g>
     <g id="line2d_22">
      <defs>
       <path d="M 0 0 
L -3.5 0 
" id="m4f9290c994" style="stroke:#000000;stroke-width:0.8;"/>
      </defs>
      <g>
       <use style="stroke:#000000;stroke-width:0.8;" x="47.675" xlink:href="#m4f9290c994" y="183.164746"/>
      </g>
     </g>
     <g id="text_12">
      <!-- 0.5 -->
      <defs>
       <path d="M 31.78125 66.40625 
Q 24.171875 66.40625 20.328125 58.90625 
Q 16.5 51.421875 16.5 36.375 
Q 16.5 21.390625 20.328125 13.890625 
Q 24.171875 6.390625 31.78125 6.390625 
Q 39.453125 6.390625 43.28125 13.890625 
Q 47.125 21.390625 47.125 36.375 
Q 47.125 51.421875 43.28125 58.90625 
Q 39.453125 66.40625 31.78125 66.40625 
z
M 31.78125 74.21875 
Q 44.046875 74.21875 50.515625 64.515625 
Q 56.984375 54.828125 56.984375 36.375 
Q 56.984375 17.96875 50.515625 8.265625 
Q 44.046875 -1.421875 31.78125 -1.421875 
Q 19.53125 -1.421875 13.0625 8.265625 
Q 6.59375 17.96875 6.59375 36.375 
Q 6.59375 54.828125 13.0625 64.515625 
Q 19.53125 74.21875 31.78125 74.21875 
z
" id="DejaVuSans-48"/>
       <path d="M 10.6875 12.40625 
L 21 12.40625 
L 21 0 
L 10.6875 0 
z
" id="DejaVuSans-46"/>
       <path d="M 10.796875 72.90625 
L 49.515625 72.90625 
L 49.515625 64.59375 
L 19.828125 64.59375 
L 19.828125 46.734375 
Q 21.96875 47.46875 24.109375 47.828125 
Q 26.265625 48.1875 28.421875 48.1875 
Q 40.625 48.1875 47.75 41.5 
Q 54.890625 34.8125 54.890625 23.390625 
Q 54.890625 11.625 47.5625 5.09375 
Q 40.234375 -1.421875 26.90625 -1.421875 
Q 22.3125 -1.421875 17.546875 -0.640625 
Q 12.796875 0.140625 7.71875 1.703125 
L 7.71875 11.625 
Q 12.109375 9.234375 16.796875 8.0625 
Q 21.484375 6.890625 26.703125 6.890625 
Q 35.15625 6.890625 40.078125 11.328125 
Q 45.015625 15.765625 45.015625 23.390625 
Q 45.015625 31 40.078125 35.4375 
Q 35.15625 39.890625 26.703125 39.890625 
Q 22.75 39.890625 18.8125 39.015625 
Q 14.890625 38.140625 10.796875 36.28125 
z
" id="DejaVuSans-53"/>
      </defs>
      <g transform="translate(24.771875 186.963965)scale(0.1 -0.1)">
       <use xlink:href="#DejaVuSans-48"/>
       <use x="63.623047" xlink:href="#DejaVuSans-46"/>
       <use x="95.410156" xlink:href="#DejaVuSans-53"/>
      </g>
     </g>
    </g>
    <g id="ytick_2">
     <g id="line2d_23">
      <path clip-path="url(#paa23a8e617)" d="M 47.675 151.891797 
L 388.729247 151.891797 
" style="fill:none;stroke:#b0b0b0;stroke-linecap:square;stroke-width:0.8;"/>
     </g>
     <g id="line2d_24">
      <g>
       <use style="stroke:#000000;stroke-width:0.8;" x="47.675" xlink:href="#m4f9290c994" y="151.891797"/>
      </g>
     </g>
     <g id="text_13">
      <!-- 0.6 -->
      <defs>
       <path d="M 33.015625 40.375 
Q 26.375 40.375 22.484375 35.828125 
Q 18.609375 31.296875 18.609375 23.390625 
Q 18.609375 15.53125 22.484375 10.953125 
Q 26.375 6.390625 33.015625 6.390625 
Q 39.65625 6.390625 43.53125 10.953125 
Q 47.40625 15.53125 47.40625 23.390625 
Q 47.40625 31.296875 43.53125 35.828125 
Q 39.65625 40.375 33.015625 40.375 
z
M 52.59375 71.296875 
L 52.59375 62.3125 
Q 48.875 64.0625 45.09375 64.984375 
Q 41.3125 65.921875 37.59375 65.921875 
Q 27.828125 65.921875 22.671875 59.328125 
Q 17.53125 52.734375 16.796875 39.40625 
Q 19.671875 43.65625 24.015625 45.921875 
Q 28.375 48.1875 33.59375 48.1875 
Q 44.578125 48.1875 50.953125 41.515625 
Q 57.328125 34.859375 57.328125 23.390625 
Q 57.328125 12.15625 50.6875 5.359375 
Q 44.046875 -1.421875 33.015625 -1.421875 
Q 20.359375 -1.421875 13.671875 8.265625 
Q 6.984375 17.96875 6.984375 36.375 
Q 6.984375 53.65625 15.1875 63.9375 
Q 23.390625 74.21875 37.203125 74.21875 
Q 40.921875 74.21875 44.703125 73.484375 
Q 48.484375 72.75 52.59375 71.296875 
z
" id="DejaVuSans-54"/>
      </defs>
      <g transform="translate(24.771875 155.691016)scale(0.1 -0.1)">
       <use xlink:href="#DejaVuSans-48"/>
       <use x="63.623047" xlink:href="#DejaVuSans-46"/>
       <use x="95.410156" xlink:href="#DejaVuSans-54"/>
      </g>
     </g>
    </g>
    <g id="ytick_3">
     <g id="line2d_25">
      <path clip-path="url(#paa23a8e617)" d="M 47.675 120.618848 
L 388.729247 120.618848 
" style="fill:none;stroke:#b0b0b0;stroke-linecap:square;stroke-width:0.8;"/>
     </g>
     <g id="line2d_26">
      <g>
       <use style="stroke:#000000;stroke-width:0.8;" x="47.675" xlink:href="#m4f9290c994" y="120.618848"/>
      </g>
     </g>
     <g id="text_14">
      <!-- 0.7 -->
      <defs>
       <path d="M 8.203125 72.90625 
L 55.078125 72.90625 
L 55.078125 68.703125 
L 28.609375 0 
L 18.3125 0 
L 43.21875 64.59375 
L 8.203125 64.59375 
z
" id="DejaVuSans-55"/>
      </defs>
      <g transform="translate(24.771875 124.418066)scale(0.1 -0.1)">
       <use xlink:href="#DejaVuSans-48"/>
       <use x="63.623047" xlink:href="#DejaVuSans-46"/>
       <use x="95.410156" xlink:href="#DejaVuSans-55"/>
      </g>
     </g>
    </g>
    <g id="ytick_4">
     <g id="line2d_27">
      <path clip-path="url(#paa23a8e617)" d="M 47.675 89.345898 
L 388.729247 89.345898 
" style="fill:none;stroke:#b0b0b0;stroke-linecap:square;stroke-width:0.8;"/>
     </g>
     <g id="line2d_28">
      <g>
       <use style="stroke:#000000;stroke-width:0.8;" x="47.675" xlink:href="#m4f9290c994" y="89.345898"/>
      </g>
     </g>
     <g id="text_15">
      <!-- 0.8 -->
      <defs>
       <path d="M 31.78125 34.625 
Q 24.75 34.625 20.71875 30.859375 
Q 16.703125 27.09375 16.703125 20.515625 
Q 16.703125 13.921875 20.71875 10.15625 
Q 24.75 6.390625 31.78125 6.390625 
Q 38.8125 6.390625 42.859375 10.171875 
Q 46.921875 13.96875 46.921875 20.515625 
Q 46.921875 27.09375 42.890625 30.859375 
Q 38.875 34.625 31.78125 34.625 
z
M 21.921875 38.8125 
Q 15.578125 40.375 12.03125 44.71875 
Q 8.5 49.078125 8.5 55.328125 
Q 8.5 64.0625 14.71875 69.140625 
Q 20.953125 74.21875 31.78125 74.21875 
Q 42.671875 74.21875 48.875 69.140625 
Q 55.078125 64.0625 55.078125 55.328125 
Q 55.078125 49.078125 51.53125 44.71875 
Q 48 40.375 41.703125 38.8125 
Q 48.828125 37.15625 52.796875 32.3125 
Q 56.78125 27.484375 56.78125 20.515625 
Q 56.78125 9.90625 50.3125 4.234375 
Q 43.84375 -1.421875 31.78125 -1.421875 
Q 19.734375 -1.421875 13.25 4.234375 
Q 6.78125 9.90625 6.78125 20.515625 
Q 6.78125 27.484375 10.78125 32.3125 
Q 14.796875 37.15625 21.921875 38.8125 
z
M 18.3125 54.390625 
Q 18.3125 48.734375 21.84375 45.5625 
Q 25.390625 42.390625 31.78125 42.390625 
Q 38.140625 42.390625 41.71875 45.5625 
Q 45.3125 48.734375 45.3125 54.390625 
Q 45.3125 60.0625 41.71875 63.234375 
Q 38.140625 66.40625 31.78125 66.40625 
Q 25.390625 66.40625 21.84375 63.234375 
Q 18.3125 60.0625 18.3125 54.390625 
z
" id="DejaVuSans-56"/>
      </defs>
      <g transform="translate(24.771875 93.145117)scale(0.1 -0.1)">
       <use xlink:href="#DejaVuSans-48"/>
       <use x="63.623047" xlink:href="#DejaVuSans-46"/>
       <use x="95.410156" xlink:href="#DejaVuSans-56"/>
      </g>
     </g>
    </g>
    <g id="ytick_5">
     <g id="line2d_29">
      <path clip-path="url(#paa23a8e617)" d="M 47.675 58.072949 
L 388.729247 58.072949 
" style="fill:none;stroke:#b0b0b0;stroke-linecap:square;stroke-width:0.8;"/>
     </g>
     <g id="line2d_30">
      <g>
       <use style="stroke:#000000;stroke-width:0.8;" x="47.675" xlink:href="#m4f9290c994" y="58.072949"/>
      </g>
     </g>
     <g id="text_16">
      <!-- 0.9 -->
      <defs>
       <path d="M 10.984375 1.515625 
L 10.984375 10.5 
Q 14.703125 8.734375 18.5 7.8125 
Q 22.3125 6.890625 25.984375 6.890625 
Q 35.75 6.890625 40.890625 13.453125 
Q 46.046875 20.015625 46.78125 33.40625 
Q 43.953125 29.203125 39.59375 26.953125 
Q 35.25 24.703125 29.984375 24.703125 
Q 19.046875 24.703125 12.671875 31.3125 
Q 6.296875 37.9375 6.296875 49.421875 
Q 6.296875 60.640625 12.9375 67.421875 
Q 19.578125 74.21875 30.609375 74.21875 
Q 43.265625 74.21875 49.921875 64.515625 
Q 56.59375 54.828125 56.59375 36.375 
Q 56.59375 19.140625 48.40625 8.859375 
Q 40.234375 -1.421875 26.421875 -1.421875 
Q 22.703125 -1.421875 18.890625 -0.6875 
Q 15.09375 0.046875 10.984375 1.515625 
z
M 30.609375 32.421875 
Q 37.25 32.421875 41.125 36.953125 
Q 45.015625 41.5 45.015625 49.421875 
Q 45.015625 57.28125 41.125 61.84375 
Q 37.25 66.40625 30.609375 66.40625 
Q 23.96875 66.40625 20.09375 61.84375 
Q 16.21875 57.28125 16.21875 49.421875 
Q 16.21875 41.5 20.09375 36.953125 
Q 23.96875 32.421875 30.609375 32.421875 
z
" id="DejaVuSans-57"/>
      </defs>
      <g transform="translate(24.771875 61.872168)scale(0.1 -0.1)">
       <use xlink:href="#DejaVuSans-48"/>
       <use x="63.623047" xlink:href="#DejaVuSans-46"/>
       <use x="95.410156" xlink:href="#DejaVuSans-57"/>
      </g>
     </g>
    </g>
    <g id="ytick_6">
     <g id="line2d_31">
      <path clip-path="url(#paa23a8e617)" d="M 47.675 26.8 
L 388.729247 26.8 
" style="fill:none;stroke:#b0b0b0;stroke-linecap:square;stroke-width:0.8;"/>
     </g>
     <g id="line2d_32">
      <g>
       <use style="stroke:#000000;stroke-width:0.8;" x="47.675" xlink:href="#m4f9290c994" y="26.8"/>
      </g>
     </g>
     <g id="text_17">
      <!-- 1.0 -->
      <defs>
       <path d="M 12.40625 8.296875 
L 28.515625 8.296875 
L 28.515625 63.921875 
L 10.984375 60.40625 
L 10.984375 69.390625 
L 28.421875 72.90625 
L 38.28125 72.90625 
L 38.28125 8.296875 
L 54.390625 8.296875 
L 54.390625 0 
L 12.40625 0 
z
" id="DejaVuSans-49"/>
      </defs>
      <g transform="translate(24.771875 30.599219)scale(0.1 -0.1)">
       <use xlink:href="#DejaVuSans-49"/>
       <use x="63.623047" xlink:href="#DejaVuSans-46"/>
       <use x="95.410156" xlink:href="#DejaVuSans-48"/>
      </g>
     </g>
    </g>
    <g id="text_18">
     <!-- Score -->
     <g transform="translate(18.692188 119.095654)rotate(-90)scale(0.1 -0.1)">
      <use xlink:href="#DejaVuSans-83"/>
      <use x="63.476562" xlink:href="#DejaVuSans-99"/>
      <use x="118.457031" xlink:href="#DejaVuSans-111"/>
      <use x="179.638672" xlink:href="#DejaVuSans-114"/>
      <use x="220.720703" xlink:href="#DejaVuSans-101"/>
     </g>
    </g>
   </g>
   <g id="line2d_33">
    <path clip-path="url(#paa23a8e617)" d="M 63.177466 71.833047 
L 97.62739 72.771235 
L 132.077314 60.512239 
L 166.527238 118.054466 
L 200.977161 110.736596 
L 235.427085 72.833781 
L 269.877009 93.348836 
L 304.326933 71.895593 
L 338.776857 65.203182 
L 373.226781 141.696815 
" style="fill:none;stroke:#000000;stroke-linecap:square;stroke-width:1.5;"/>
    <defs>
     <path d="M 0 3 
C 0.795609 3 1.55874 2.683901 2.12132 2.12132 
C 2.683901 1.55874 3 0.795609 3 0 
C 3 -0.795609 2.683901 -1.55874 2.12132 -2.12132 
C 1.55874 -2.683901 0.795609 -3 0 -3 
C -0.795609 -3 -1.55874 -2.683901 -2.12132 -2.12132 
C -2.683901 -1.55874 -3 -0.795609 -3 0 
C -3 0.795609 -2.683901 1.55874 -2.12132 2.12132 
C -1.55874 2.683901 -0.795609 3 0 3 
z
" id="me519214f73" style="stroke:#000000;"/>
    </defs>
    <g clip-path="url(#paa23a8e617)">
     <use style="stroke:#000000;" x="63.177466" xlink:href="#me519214f73" y="71.833047"/>
     <use style="stroke:#000000;" x="97.62739" xlink:href="#me519214f73" y="72.771235"/>
     <use style="stroke:#000000;" x="132.077314" xlink:href="#me519214f73" y="60.512239"/>
     <use style="stroke:#000000;" x="166.527238" xlink:href="#me519214f73" y="118.054466"/>
     <use style="stroke:#000000;" x="200.977161" xlink:href="#me519214f73" y="110.736596"/>
     <use style="stroke:#000000;" x="235.427085" xlink:href="#me519214f73" y="72.833781"/>
     <use style="stroke:#000000;" x="269.877009" xlink:href="#me519214f73" y="93.348836"/>
     <use style="stroke:#000000;" x="304.326933" xlink:href="#me519214f73" y="71.895593"/>
     <use style="stroke:#000000;" x="338.776857" xlink:href="#me519214f73" y="65.203182"/>
     <use style="stroke:#000000;" x="373.226781" xlink:href="#me519214f73" y="141.696815"/>
    </g>
   </g>
   <g id="line2d_34">
    <path clip-path="url(#paa23a8e617)" d="M 63.177466 69.773368 
L 97.62739 68.72949 
L 132.077314 65.322914 
L 166.527238 88.261287 
L 200.977161 108.409458 
L 235.427085 68.841161 
L 269.877009 78.121948 
L 304.326933 70.157403 
L 338.776857 65.53426 
L 373.226781 135.747278 
" style="fill:none;stroke:#008000;stroke-linecap:square;stroke-width:1.5;"/>
    <defs>
     <path d="M -0 3 
L 3 -3 
L -3 -3 
z
" id="m8052ca4085" style="stroke:#008000;stroke-linejoin:miter;"/>
    </defs>
    <g clip-path="url(#paa23a8e617)">
     <use style="fill:#008000;stroke:#008000;stroke-linejoin:miter;" x="63.177466" xlink:href="#m8052ca4085" y="69.773368"/>
     <use style="fill:#008000;stroke:#008000;stroke-linejoin:miter;" x="97.62739" xlink:href="#m8052ca4085" y="68.72949"/>
     <use style="fill:#008000;stroke:#008000;stroke-linejoin:miter;" x="132.077314" xlink:href="#m8052ca4085" y="65.322914"/>
     <use style="fill:#008000;stroke:#008000;stroke-linejoin:miter;" x="166.527238" xlink:href="#m8052ca4085" y="88.261287"/>
     <use style="fill:#008000;stroke:#008000;stroke-linejoin:miter;" x="200.977161" xlink:href="#m8052ca4085" y="108.409458"/>
     <use style="fill:#008000;stroke:#008000;stroke-linejoin:miter;" x="235.427085" xlink:href="#m8052ca4085" y="68.841161"/>
     <use style="fill:#008000;stroke:#008000;stroke-linejoin:miter;" x="269.877009" xlink:href="#m8052ca4085" y="78.121948"/>
     <use style="fill:#008000;stroke:#008000;stroke-linejoin:miter;" x="304.326933" xlink:href="#m8052ca4085" y="70.157403"/>
     <use style="fill:#008000;stroke:#008000;stroke-linejoin:miter;" x="338.776857" xlink:href="#m8052ca4085" y="65.53426"/>
     <use style="fill:#008000;stroke:#008000;stroke-linejoin:miter;" x="373.226781" xlink:href="#m8052ca4085" y="135.747278"/>
    </g>
   </g>
   <g id="line2d_35">
    <path clip-path="url(#paa23a8e617)" d="M 63.177466 74.289014 
L 97.62739 77.903663 
L 132.077314 53.847549 
L 166.527238 166.275608 
L 200.977161 114.673373 
L 235.427085 77.903663 
L 269.877009 115.421231 
L 304.326933 73.915085 
L 338.776857 64.442211 
L 373.226781 159.544882 
" style="fill:none;stroke:#ff00ff;stroke-linecap:square;stroke-width:1.5;"/>
    <defs>
     <path d="M -3 3 
L 3 3 
L 3 -3 
L -3 -3 
z
" id="m8dad6ea714" style="stroke:#ff00ff;stroke-linejoin:miter;"/>
    </defs>
    <g clip-path="url(#paa23a8e617)">
     <use style="fill:#ff00ff;stroke:#ff00ff;stroke-linejoin:miter;" x="63.177466" xlink:href="#m8dad6ea714" y="74.289014"/>
     <use style="fill:#ff00ff;stroke:#ff00ff;stroke-linejoin:miter;" x="97.62739" xlink:href="#m8dad6ea714" y="77.903663"/>
     <use style="fill:#ff00ff;stroke:#ff00ff;stroke-linejoin:miter;" x="132.077314" xlink:href="#m8dad6ea714" y="53.847549"/>
     <use style="fill:#ff00ff;stroke:#ff00ff;stroke-linejoin:miter;" x="166.527238" xlink:href="#m8dad6ea714" y="166.275608"/>
     <use style="fill:#ff00ff;stroke:#ff00ff;stroke-linejoin:miter;" x="200.977161" xlink:href="#m8dad6ea714" y="114.673373"/>
     <use style="fill:#ff00ff;stroke:#ff00ff;stroke-linejoin:miter;" x="235.427085" xlink:href="#m8dad6ea714" y="77.903663"/>
     <use style="fill:#ff00ff;stroke:#ff00ff;stroke-linejoin:miter;" x="269.877009" xlink:href="#m8dad6ea714" y="115.421231"/>
     <use style="fill:#ff00ff;stroke:#ff00ff;stroke-linejoin:miter;" x="304.326933" xlink:href="#m8dad6ea714" y="73.915085"/>
     <use style="fill:#ff00ff;stroke:#ff00ff;stroke-linejoin:miter;" x="338.776857" xlink:href="#m8dad6ea714" y="64.442211"/>
     <use style="fill:#ff00ff;stroke:#ff00ff;stroke-linejoin:miter;" x="373.226781" xlink:href="#m8dad6ea714" y="159.544882"/>
    </g>
   </g>
   <g id="line2d_36">
    <path clip-path="url(#paa23a8e617)" d="M 63.177466 72.050248 
L 97.62739 73.395617 
L 132.077314 59.70283 
L 166.527238 134.436784 
L 200.977161 111.58444 
L 235.427085 73.449555 
L 269.877009 98.20433 
L 304.326933 72.049441 
L 338.776857 64.989321 
L 373.226781 148.383932 
" style="fill:none;stroke:#0000ff;stroke-linecap:square;stroke-width:1.5;"/>
    <defs>
     <path d="M -3 3 
L 3 -3 
M -3 -3 
L 3 3 
" id="m73fc7b8e4f" style="stroke:#0000ff;"/>
    </defs>
    <g clip-path="url(#paa23a8e617)">
     <use style="fill:#0000ff;stroke:#0000ff;" x="63.177466" xlink:href="#m73fc7b8e4f" y="72.050248"/>
     <use style="fill:#0000ff;stroke:#0000ff;" x="97.62739" xlink:href="#m73fc7b8e4f" y="73.395617"/>
     <use style="fill:#0000ff;stroke:#0000ff;" x="132.077314" xlink:href="#m73fc7b8e4f" y="59.70283"/>
     <use style="fill:#0000ff;stroke:#0000ff;" x="166.527238" xlink:href="#m73fc7b8e4f" y="134.436784"/>
     <use style="fill:#0000ff;stroke:#0000ff;" x="200.977161" xlink:href="#m73fc7b8e4f" y="111.58444"/>
     <use style="fill:#0000ff;stroke:#0000ff;" x="235.427085" xlink:href="#m73fc7b8e4f" y="73.449555"/>
     <use style="fill:#0000ff;stroke:#0000ff;" x="269.877009" xlink:href="#m73fc7b8e4f" y="98.20433"/>
     <use style="fill:#0000ff;stroke:#0000ff;" x="304.326933" xlink:href="#m73fc7b8e4f" y="72.049441"/>
     <use style="fill:#0000ff;stroke:#0000ff;" x="338.776857" xlink:href="#m73fc7b8e4f" y="64.989321"/>
     <use style="fill:#0000ff;stroke:#0000ff;" x="373.226781" xlink:href="#m73fc7b8e4f" y="148.383932"/>
    </g>
   </g>
   <g id="patch_3">
    <path d="M 47.675 183.164746 
L 47.675 26.8 
" style="fill:none;stroke:#000000;stroke-linecap:square;stroke-linejoin:miter;stroke-width:0.8;"/>
   </g>
   <g id="patch_4">
    <path d="M 388.729247 183.164746 
L 388.729247 26.8 
" style="fill:none;stroke:#000000;stroke-linecap:square;stroke-linejoin:miter;stroke-width:0.8;"/>
   </g>
   <g id="patch_5">
    <path d="M 47.675 183.164746 
L 388.729247 183.164746 
" style="fill:none;stroke:#000000;stroke-linecap:square;stroke-linejoin:miter;stroke-width:0.8;"/>
   </g>
   <g id="patch_6">
    <path d="M 47.675 26.8 
L 388.729247 26.8 
" style="fill:none;stroke:#000000;stroke-linecap:square;stroke-linejoin:miter;stroke-width:0.8;"/>
   </g>
   <g id="text_19">
    <!-- Accuracy, Precision, Recall, F-Score comparision -->
    <defs>
     <path d="M 34.1875 63.1875 
L 20.796875 26.90625 
L 47.609375 26.90625 
z
M 28.609375 72.90625 
L 39.796875 72.90625 
L 67.578125 0 
L 57.328125 0 
L 50.6875 18.703125 
L 17.828125 18.703125 
L 11.1875 0 
L 0.78125 0 
z
" id="DejaVuSans-65"/>
     <path d="M 11.71875 12.40625 
L 22.015625 12.40625 
L 22.015625 4 
L 14.015625 -11.625 
L 7.71875 -11.625 
L 11.71875 4 
z
" id="DejaVuSans-44"/>
     <path d="M 19.671875 64.796875 
L 19.671875 37.40625 
L 32.078125 37.40625 
Q 38.96875 37.40625 42.71875 40.96875 
Q 46.484375 44.53125 46.484375 51.125 
Q 46.484375 57.671875 42.71875 61.234375 
Q 38.96875 64.796875 32.078125 64.796875 
z
M 9.8125 72.90625 
L 32.078125 72.90625 
Q 44.34375 72.90625 50.609375 67.359375 
Q 56.890625 61.8125 56.890625 51.125 
Q 56.890625 40.328125 50.609375 34.8125 
Q 44.34375 29.296875 32.078125 29.296875 
L 19.671875 29.296875 
L 19.671875 0 
L 9.8125 0 
z
" id="DejaVuSans-80"/>
    </defs>
    <g transform="translate(72.931811 20.8)scale(0.12 -0.12)">
     <use xlink:href="#DejaVuSans-65"/>
     <use x="68.392578" xlink:href="#DejaVuSans-99"/>
     <use x="123.373047" xlink:href="#DejaVuSans-99"/>
     <use x="178.353516" xlink:href="#DejaVuSans-117"/>
     <use x="241.732422" xlink:href="#DejaVuSans-114"/>
     <use x="282.845703" xlink:href="#DejaVuSans-97"/>
     <use x="344.125" xlink:href="#DejaVuSans-99"/>
     <use x="399.105469" xlink:href="#DejaVuSans-121"/>
     <use x="458.285156" xlink:href="#DejaVuSans-44"/>
     <use x="490.072266" xlink:href="#DejaVuSans-32"/>
     <use x="521.859375" xlink:href="#DejaVuSans-80"/>
     <use x="582.146484" xlink:href="#DejaVuSans-114"/>
     <use x="623.228516" xlink:href="#DejaVuSans-101"/>
     <use x="684.751953" xlink:href="#DejaVuSans-99"/>
     <use x="739.732422" xlink:href="#DejaVuSans-105"/>
     <use x="767.515625" xlink:href="#DejaVuSans-115"/>
     <use x="819.615234" xlink:href="#DejaVuSans-105"/>
     <use x="847.398438" xlink:href="#DejaVuSans-111"/>
     <use x="908.580078" xlink:href="#DejaVuSans-110"/>
     <use x="971.958984" xlink:href="#DejaVuSans-44"/>
     <use x="1003.746094" xlink:href="#DejaVuSans-32"/>
     <use x="1035.533203" xlink:href="#DejaVuSans-82"/>
     <use x="1104.953125" xlink:href="#DejaVuSans-101"/>
     <use x="1166.476562" xlink:href="#DejaVuSans-99"/>
     <use x="1221.457031" xlink:href="#DejaVuSans-97"/>
     <use x="1282.736328" xlink:href="#DejaVuSans-108"/>
     <use x="1310.519531" xlink:href="#DejaVuSans-108"/>
     <use x="1338.302734" xlink:href="#DejaVuSans-44"/>
     <use x="1370.089844" xlink:href="#DejaVuSans-32"/>
     <use x="1401.876953" xlink:href="#DejaVuSans-70"/>
     <use x="1459.396484" xlink:href="#DejaVuSans-45"/>
     <use x="1495.480469" xlink:href="#DejaVuSans-83"/>
     <use x="1558.957031" xlink:href="#DejaVuSans-99"/>
     <use x="1613.9375" xlink:href="#DejaVuSans-111"/>
     <use x="1675.119141" xlink:href="#DejaVuSans-114"/>
     <use x="1716.201172" xlink:href="#DejaVuSans-101"/>
     <use x="1777.724609" xlink:href="#DejaVuSans-32"/>
     <use x="1809.511719" xlink:href="#DejaVuSans-99"/>
     <use x="1864.492188" xlink:href="#DejaVuSans-111"/>
     <use x="1925.673828" xlink:href="#DejaVuSans-109"/>
     <use x="2023.085938" xlink:href="#DejaVuSans-112"/>
     <use x="2086.5625" xlink:href="#DejaVuSans-97"/>
     <use x="2147.841797" xlink:href="#DejaVuSans-114"/>
     <use x="2188.955078" xlink:href="#DejaVuSans-105"/>
     <use x="2216.738281" xlink:href="#DejaVuSans-115"/>
     <use x="2268.837891" xlink:href="#DejaVuSans-105"/>
     <use x="2296.621094" xlink:href="#DejaVuSans-111"/>
     <use x="2357.802734" xlink:href="#DejaVuSans-110"/>
    </g>
   </g>
   <g id="legend_1">
    <g id="patch_7">
     <path d="M 54.675 178.164746 
L 132.504688 178.164746 
Q 134.504688 178.164746 134.504688 176.164746 
L 134.504688 118.452246 
Q 134.504688 116.452246 132.504688 116.452246 
L 54.675 116.452246 
Q 52.675 116.452246 52.675 118.452246 
L 52.675 176.164746 
Q 52.675 178.164746 54.675 178.164746 
z
" style="fill:#ffffff;opacity:0.8;stroke:#cccccc;stroke-linejoin:miter;"/>
    </g>
    <g id="line2d_37">
     <path d="M 56.675 124.550683 
L 76.675 124.550683 
" style="fill:none;stroke:#000000;stroke-linecap:square;stroke-width:1.5;"/>
    </g>
    <g id="line2d_38">
     <g>
      <use style="stroke:#000000;" x="66.675" xlink:href="#me519214f73" y="124.550683"/>
     </g>
    </g>
    <g id="text_20">
     <!-- Accuracy -->
     <g transform="translate(84.675 128.050683)scale(0.1 -0.1)">
      <use xlink:href="#DejaVuSans-65"/>
      <use x="68.392578" xlink:href="#DejaVuSans-99"/>
      <use x="123.373047" xlink:href="#DejaVuSans-99"/>
      <use x="178.353516" xlink:href="#DejaVuSans-117"/>
      <use x="241.732422" xlink:href="#DejaVuSans-114"/>
      <use x="282.845703" xlink:href="#DejaVuSans-97"/>
      <use x="344.125" xlink:href="#DejaVuSans-99"/>
      <use x="399.105469" xlink:href="#DejaVuSans-121"/>
     </g>
    </g>
    <g id="line2d_39">
     <path d="M 56.675 139.228808 
L 76.675 139.228808 
" style="fill:none;stroke:#008000;stroke-linecap:square;stroke-width:1.5;"/>
    </g>
    <g id="line2d_40">
     <g>
      <use style="fill:#008000;stroke:#008000;stroke-linejoin:miter;" x="66.675" xlink:href="#m8052ca4085" y="139.228808"/>
     </g>
    </g>
    <g id="text_21">
     <!-- Precision -->
     <g transform="translate(84.675 142.728808)scale(0.1 -0.1)">
      <use xlink:href="#DejaVuSans-80"/>
      <use x="60.287109" xlink:href="#DejaVuSans-114"/>
      <use x="101.369141" xlink:href="#DejaVuSans-101"/>
      <use x="162.892578" xlink:href="#DejaVuSans-99"/>
      <use x="217.873047" xlink:href="#DejaVuSans-105"/>
      <use x="245.65625" xlink:href="#DejaVuSans-115"/>
      <use x="297.755859" xlink:href="#DejaVuSans-105"/>
      <use x="325.539062" xlink:href="#DejaVuSans-111"/>
      <use x="386.720703" xlink:href="#DejaVuSans-110"/>
     </g>
    </g>
    <g id="line2d_41">
     <path d="M 56.675 153.906933 
L 76.675 153.906933 
" style="fill:none;stroke:#ff00ff;stroke-linecap:square;stroke-width:1.5;"/>
    </g>
    <g id="line2d_42">
     <g>
      <use style="fill:#ff00ff;stroke:#ff00ff;stroke-linejoin:miter;" x="66.675" xlink:href="#m8dad6ea714" y="153.906933"/>
     </g>
    </g>
    <g id="text_22">
     <!-- Recall -->
     <g transform="translate(84.675 157.406933)scale(0.1 -0.1)">
      <use xlink:href="#DejaVuSans-82"/>
      <use x="69.419922" xlink:href="#DejaVuSans-101"/>
      <use x="130.943359" xlink:href="#DejaVuSans-99"/>
      <use x="185.923828" xlink:href="#DejaVuSans-97"/>
      <use x="247.203125" xlink:href="#DejaVuSans-108"/>
      <use x="274.986328" xlink:href="#DejaVuSans-108"/>
     </g>
    </g>
    <g id="line2d_43">
     <path d="M 56.675 168.585058 
L 76.675 168.585058 
" style="fill:none;stroke:#0000ff;stroke-linecap:square;stroke-width:1.5;"/>
    </g>
    <g id="line2d_44">
     <g>
      <use style="fill:#0000ff;stroke:#0000ff;" x="66.675" xlink:href="#m73fc7b8e4f" y="168.585058"/>
     </g>
    </g>
    <g id="text_23">
     <!-- F-Score -->
     <g transform="translate(84.675 172.085058)scale(0.1 -0.1)">
      <use xlink:href="#DejaVuSans-70"/>
      <use x="57.519531" xlink:href="#DejaVuSans-45"/>
      <use x="93.603516" xlink:href="#DejaVuSans-83"/>
      <use x="157.080078" xlink:href="#DejaVuSans-99"/>
      <use x="212.060547" xlink:href="#DejaVuSans-111"/>
      <use x="273.242188" xlink:href="#DejaVuSans-114"/>
      <use x="314.324219" xlink:href="#DejaVuSans-101"/>
     </g>
    </g>
   </g>
  </g>
 </g>
 <defs>
  <clipPath id="paa23a8e617">
   <rect height="156.364746" width="341.054247" x="47.675" y="26.8"/>
  </clipPath>
 </defs>
</svg>
